<svg xmlns="http://www.w3.org/2000/svg" xmlns:xlink="http://www.w3.org/1999/xlink" width="1080" zoomAndPan="magnify" viewBox="0 0 810 809.999993" height="1080" preserveAspectRatio="xMidYMid meet" version="1.0"><defs><g/><clipPath id="e94ad922ee"><path d="M 153.738281 420 L 281.988281 420 L 281.988281 533.960938 L 153.738281 533.960938 Z M 153.738281 420 " clip-rule="nonzero"/></clipPath><clipPath id="9f11a1fd9f"><path d="M 152 339 L 278 339 L 278 418 L 152 418 Z M 152 339 " clip-rule="nonzero"/></clipPath><clipPath id="45ca899afb"><path d="M 135.933594 331.734375 L 278.292969 325.382812 L 282.234375 413.792969 L 139.878906 420.148438 Z M 135.933594 331.734375 " clip-rule="nonzero"/></clipPath><clipPath id="2126607830"><path d="M 135.933594 331.734375 L 278.292969 325.382812 L 282.234375 413.792969 L 139.878906 420.148438 Z M 135.933594 331.734375 " clip-rule="nonzero"/></clipPath></defs><g clip-path="url(#e94ad922ee)"><path fill="#ebb230" d="M 281.960938 443.441406 L 281.925781 443.308594 C 281.636719 442.3125 280.867188 441.550781 279.941406 441.109375 C 278.878906 440.59375 277.640625 440.5 276.519531 440.765625 L 276.25 440.839844 L 229.246094 454.320312 L 229.226562 454.328125 C 227 454.824219 225.039062 454.300781 223.667969 452.4375 L 223.503906 452.199219 L 223.480469 452.167969 L 223.464844 452.144531 C 222.488281 450.765625 221.355469 449.71875 219.714844 449.214844 C 217.667969 448.582031 215.226562 448.949219 213.191406 449.429688 C 209.277344 450.363281 204.929688 452.609375 202.015625 455.398438 C 199.953125 457.382812 198.046875 460.191406 198.757812 463.199219 C 199.46875 466.207031 202.4375 467.859375 205.171875 468.703125 C 209.027344 469.890625 213.921875 469.941406 217.835938 469.015625 C 219.871094 468.535156 222.214844 467.761719 223.757812 466.273438 C 225.007812 465.078125 225.542969 463.617188 225.792969 461.9375 C 225.796875 461.890625 225.808594 461.84375 225.8125 461.796875 L 225.808594 461.785156 L 225.835938 461.640625 C 226.21875 459.355469 227.714844 457.992188 229.953125 457.433594 L 229.972656 457.429688 L 278.003906 448.351562 L 278.273438 448.300781 C 279.417969 448.027344 280.480469 447.390625 281.195312 446.449219 C 281.820312 445.636719 282.167969 444.613281 281.976562 443.597656 Z M 181.199219 459.480469 C 180.832031 460.34375 179.832031 460.746094 178.96875 460.378906 C 178.105469 460.011719 177.703125 459.015625 178.070312 458.152344 C 178.105469 458.066406 190.03125 429.441406 224.453125 432.355469 C 225.390625 432.433594 226.085938 433.253906 226.007812 434.191406 C 225.929688 435.128906 225.109375 435.824219 224.171875 435.746094 C 192.214844 433.039062 181.230469 459.40625 181.199219 459.480469 Z M 184.476562 440.03125 C 183.855469 440.730469 182.777344 440.792969 182.078125 440.171875 C 181.375 439.546875 181.3125 438.472656 181.933594 437.769531 C 181.980469 437.71875 197.324219 420 230.398438 424.195312 C 246.269531 426.210938 255.339844 425.972656 260.582031 424.886719 C 265.222656 423.921875 266.449219 422.410156 266.9375 421.347656 C 267.324219 420.492188 268.328125 420.113281 269.1875 420.496094 C 270.042969 420.882812 270.421875 421.886719 270.039062 422.746094 C 269.242188 424.492188 267.414062 426.9375 261.265625 428.210938 C 255.722656 429.359375 246.277344 429.628906 229.976562 427.5625 C 198.707031 423.59375 184.519531 439.984375 184.476562 440.03125 Z M 275.484375 475.605469 C 273.539062 485.375 269.289062 494.320312 263.332031 501.851562 C 257.496094 509.226562 250.015625 515.25 241.445312 519.351562 L 241.445312 530.085938 C 241.445312 531.109375 241.019531 532.046875 240.347656 532.726562 L 240.339844 532.730469 C 239.65625 533.410156 238.726562 533.832031 237.699219 533.832031 L 191.488281 533.832031 C 190.5 533.832031 189.597656 533.425781 188.945312 532.773438 C 188.296875 532.125 187.886719 531.226562 187.886719 530.230469 L 187.886719 519.292969 C 179.34375 515.179688 171.890625 509.171875 166.074219 501.804688 C 160.117188 494.257812 155.875 485.296875 153.9375 475.511719 C 153.761719 474.59375 154.363281 473.699219 155.28125 473.519531 C 155.390625 473.5 155.5 473.488281 155.605469 473.488281 L 273.824219 473.488281 C 274.769531 473.488281 275.527344 474.253906 275.527344 475.1875 C 275.535156 475.328125 275.519531 475.472656 275.484375 475.605469 Z M 275.484375 475.605469 " fill-opacity="1" fill-rule="evenodd"/></g><g clip-path="url(#9f11a1fd9f)"><g clip-path="url(#45ca899afb)"><g clip-path="url(#2126607830)"><path fill="#ebb230" d="M 192.800781 417.59375 C 192.800781 417.59375 200.371094 398.769531 192.667969 382.609375 C 192.667969 382.609375 195.648438 392.832031 192.734375 400.097656 C 192.734375 400.097656 188.878906 390.992188 178.953125 390.054688 C 169.027344 389.117188 137.953125 374.632812 161.691406 360.96875 C 185.425781 347.308594 194.457031 351.804688 194.457031 351.804688 C 194.457031 351.804688 190.523438 347.691406 180.960938 350.535156 C 180.960938 350.535156 204.683594 328.671875 227.71875 346.054688 C 227.71875 346.054688 232.78125 350.472656 235.234375 354.316406 C 235.234375 354.316406 227.785156 358.136719 222.765625 362.835938 C 222.765625 362.835938 239.355469 351.125 258.65625 356.523438 C 277.960938 361.921875 280.390625 375.667969 274.753906 378.519531 C 269.117188 381.375 253.8125 389.835938 253.8125 389.835938 C 253.8125 389.835938 255.9375 383.816406 258.417969 381.859375 C 258.417969 381.859375 247.152344 387 247.164062 412.734375 C 247.15625 412.738281 215.824219 402.519531 192.800781 417.59375 " fill-opacity="1" fill-rule="evenodd"/></g></g></g><g fill="#ebb230" fill-opacity="1"><g transform="translate(303.970536, 448.104225)"><g><path d="M 58.203125 -81.453125 C 58.203125 -81.691406 58.421875 -81.992188 58.859375 -82.359375 C 59.304688 -82.722656 59.691406 -82.90625 60.015625 -82.90625 C 60.890625 -82.90625 61.390625 -82.460938 61.515625 -81.578125 C 61.640625 -80.691406 61.738281 -79.890625 61.8125 -79.171875 C 61.894531 -78.285156 61.972656 -77.539062 62.046875 -76.9375 C 62.128906 -76.332031 62.210938 -75.550781 62.296875 -74.59375 C 62.535156 -73.226562 62.835938 -71.296875 63.203125 -68.796875 C 63.566406 -66.304688 63.90625 -63.835938 64.21875 -61.390625 C 64.539062 -58.941406 64.703125 -57.113281 64.703125 -55.90625 C 64.785156 -55.03125 64.882812 -54.25 65 -53.5625 C 65.125 -52.875 65.1875 -51.96875 65.1875 -50.84375 C 65.1875 -49.96875 65.1875 -49.164062 65.1875 -48.4375 C 65.1875 -47.71875 65.226562 -46.914062 65.3125 -46.03125 C 65.46875 -44.75 65.503906 -43.84375 65.421875 -43.3125 C 65.347656 -42.789062 65.269531 -42.050781 65.1875 -41.09375 L 64.703125 -30.96875 C 64.378906 -27.113281 63.859375 -22.695312 63.140625 -17.71875 C 62.421875 -12.738281 61.5 -7.492188 60.375 -1.984375 C 59.25 3.515625 58.039062 8.972656 56.75 14.390625 C 55.46875 19.816406 54.101562 24.898438 52.65625 29.640625 C 51.207031 34.378906 49.800781 38.515625 48.4375 42.046875 C 47.957031 43.171875 47.273438 44.65625 46.390625 46.5 C 45.503906 48.351562 44.457031 50.003906 43.25 51.453125 C 42.050781 52.898438 40.726562 53.625 39.28125 53.625 L 37.84375 53.625 C 35.988281 53.625 34.316406 52.273438 32.828125 49.578125 C 31.347656 46.890625 30.023438 43.359375 28.859375 38.984375 C 27.691406 34.609375 26.6875 29.847656 25.84375 24.703125 C 25 19.554688 24.273438 14.492188 23.671875 9.515625 C 23.078125 4.535156 22.597656 0.0976562 22.234375 -3.796875 C 21.867188 -7.691406 21.609375 -10.523438 21.453125 -12.296875 C 21.285156 -14.859375 21.140625 -17.503906 21.015625 -20.234375 C 20.898438 -22.972656 20.679688 -25.46875 20.359375 -27.71875 C 20.285156 -28.4375 20.265625 -29.132812 20.296875 -29.8125 C 20.335938 -30.5 20.359375 -31.207031 20.359375 -31.9375 C 20.285156 -32.65625 20.207031 -33.210938 20.125 -33.609375 C 20.039062 -34.015625 20 -34.703125 20 -35.671875 C 20 -36.234375 19.9375 -37.597656 19.8125 -39.765625 C 19.695312 -41.929688 19.535156 -44.316406 19.328125 -46.921875 C 19.128906 -49.535156 18.867188 -51.867188 18.546875 -53.921875 C 18.234375 -55.972656 17.875 -57.160156 17.46875 -57.484375 C 17.226562 -56.515625 16.945312 -55.566406 16.625 -54.640625 C 16.300781 -53.722656 16.019531 -52.78125 15.78125 -51.8125 C 14.894531 -48.757812 13.953125 -45.039062 12.953125 -40.65625 C 11.953125 -36.28125 10.945312 -31.625 9.9375 -26.6875 C 8.9375 -21.75 7.992188 -16.804688 7.109375 -11.859375 C 6.222656 -6.921875 5.476562 -2.285156 4.875 2.046875 C 4.269531 6.390625 3.847656 10.085938 3.609375 13.140625 C 3.296875 16.753906 3.015625 19.90625 2.765625 22.59375 C 2.523438 25.28125 2.320312 27.847656 2.15625 30.296875 C 2 32.753906 1.878906 35.347656 1.796875 38.078125 C 1.722656 40.804688 1.6875 44.0625 1.6875 47.84375 C 1.6875 49.363281 1.785156 51.007812 1.984375 52.78125 C 2.191406 54.550781 2.253906 56.035156 2.171875 57.234375 C 2.085938 58.441406 1.601562 59.046875 0.71875 59.046875 C -0.238281 59.046875 -0.816406 58.785156 -1.015625 58.265625 C -1.222656 57.742188 -1.40625 56.921875 -1.5625 55.796875 L -2.171875 47.109375 C -2.328125 44.054688 -2.320312 40.359375 -2.15625 36.015625 C -2 31.679688 -1.71875 27.101562 -1.3125 22.28125 C -0.914062 17.46875 -0.476562 12.832031 0 8.375 C 0.476562 3.914062 0.921875 0.078125 1.328125 -3.140625 C 1.566406 -4.503906 1.96875 -6.789062 2.53125 -10 C 3.09375 -13.21875 3.773438 -16.929688 4.578125 -21.140625 C 5.378906 -25.359375 6.257812 -29.71875 7.21875 -34.21875 C 8.1875 -38.71875 9.171875 -42.992188 10.171875 -47.046875 C 11.179688 -51.109375 12.128906 -54.566406 13.015625 -57.421875 C 13.898438 -60.273438 14.703125 -62.140625 15.421875 -63.015625 C 16.222656 -64.066406 17.226562 -64.59375 18.4375 -64.59375 C 19.15625 -64.59375 19.914062 -64.269531 20.71875 -63.625 C 21.53125 -62.820312 22.234375 -61.191406 22.828125 -58.734375 C 23.429688 -56.285156 23.953125 -53.554688 24.390625 -50.546875 C 24.835938 -47.535156 25.179688 -44.679688 25.421875 -41.984375 C 25.660156 -39.296875 25.78125 -37.3125 25.78125 -36.03125 L 28.4375 2.53125 C 28.84375 5.90625 29.203125 9.378906 29.515625 12.953125 C 29.835938 16.523438 30.28125 20.363281 30.84375 24.46875 C 31.007812 25.1875 31.234375 26.507812 31.515625 28.4375 C 31.796875 30.363281 32.175781 32.53125 32.65625 34.9375 C 33.132812 37.351562 33.675781 39.664062 34.28125 41.875 C 34.882812 44.082031 35.546875 45.925781 36.265625 47.40625 C 36.992188 48.894531 37.757812 49.640625 38.5625 49.640625 C 39.601562 49.640625 40.707031 48.734375 41.875 46.921875 C 43.039062 45.117188 44.1875 42.75 45.3125 39.8125 C 46.4375 36.882812 47.519531 33.734375 48.5625 30.359375 C 49.601562 26.992188 50.523438 23.722656 51.328125 20.546875 C 52.128906 17.367188 52.8125 14.632812 53.375 12.34375 C 53.9375 10.0625 54.300781 8.597656 54.46875 7.953125 C 56.550781 -1.367188 58.234375 -10.425781 59.515625 -19.21875 C 60.804688 -28.019531 61.453125 -37.359375 61.453125 -47.234375 C 61.453125 -49.890625 61.289062 -52.84375 60.96875 -56.09375 C 60.644531 -59.34375 60.265625 -62.570312 59.828125 -65.78125 C 59.390625 -69 59.007812 -71.992188 58.6875 -74.765625 C 58.363281 -77.535156 58.203125 -79.765625 58.203125 -81.453125 Z M 58.203125 -81.453125 "/></g></g></g><g fill="#ebb230" fill-opacity="1"><g transform="translate(373.374017, 448.104225)"><g><path d="M 5.546875 -21.8125 C 7.066406 -22.613281 8.75 -23.71875 10.59375 -25.125 C 12.445312 -26.53125 13.453125 -28.195312 13.609375 -30.125 C 12.566406 -29.96875 11.460938 -29.40625 10.296875 -28.4375 C 9.140625 -27.46875 8.140625 -26.378906 7.296875 -25.171875 C 6.453125 -23.972656 5.867188 -22.851562 5.546875 -21.8125 Z M 0.125 -18.921875 C 0.125 -20.929688 0.785156 -23.097656 2.109375 -25.421875 C 3.429688 -27.753906 5.078125 -29.742188 7.046875 -31.390625 C 9.015625 -33.035156 10.960938 -33.859375 12.890625 -33.859375 C 15.546875 -33.859375 16.929688 -32.851562 17.046875 -30.84375 C 17.171875 -28.832031 16.304688 -26.664062 14.453125 -24.34375 C 13.492188 -23.300781 12.050781 -22.09375 10.125 -20.71875 C 8.195312 -19.351562 6.304688 -18.59375 4.453125 -18.4375 C 4.453125 -17.15625 4.492188 -16.007812 4.578125 -15 C 4.660156 -14 5.222656 -12.972656 6.265625 -11.921875 C 7.304688 -10.878906 8.632812 -10.359375 10.25 -10.359375 C 12.332031 -10.359375 14.5 -11.019531 16.75 -12.34375 C 19 -13.675781 20.726562 -14.785156 21.9375 -15.671875 C 22.414062 -16.066406 22.796875 -16.382812 23.078125 -16.625 C 23.359375 -16.863281 23.695312 -17.144531 24.09375 -17.46875 C 25.78125 -18.757812 26.84375 -19.703125 27.28125 -20.296875 C 27.726562 -20.898438 28.113281 -21.300781 28.4375 -21.5 C 28.757812 -21.707031 29.523438 -21.8125 30.734375 -21.8125 C 30.890625 -20.925781 30.945312 -20.320312 30.90625 -20 C 30.863281 -19.675781 30.5625 -19.195312 30 -18.5625 C 28.550781 -17.113281 26.722656 -15.460938 24.515625 -13.609375 C 22.304688 -11.765625 19.9375 -10.160156 17.40625 -8.796875 C 14.875 -7.429688 12.363281 -6.75 9.875 -6.75 C 8.59375 -6.75 7.367188 -6.96875 6.203125 -7.40625 C 5.035156 -7.851562 3.929688 -8.597656 2.890625 -9.640625 C 1.441406 -11.085938 0.617188 -12.570312 0.421875 -14.09375 C 0.222656 -15.625 0.125 -17.234375 0.125 -18.921875 Z M 0.125 -18.921875 "/></g></g></g><g fill="#ebb230" fill-opacity="1"><g transform="translate(399.520812, 448.104225)"><g><path d="M 5.546875 -21.8125 C 7.066406 -22.613281 8.75 -23.71875 10.59375 -25.125 C 12.445312 -26.53125 13.453125 -28.195312 13.609375 -30.125 C 12.566406 -29.96875 11.460938 -29.40625 10.296875 -28.4375 C 9.140625 -27.46875 8.140625 -26.378906 7.296875 -25.171875 C 6.453125 -23.972656 5.867188 -22.851562 5.546875 -21.8125 Z M 0.125 -18.921875 C 0.125 -20.929688 0.785156 -23.097656 2.109375 -25.421875 C 3.429688 -27.753906 5.078125 -29.742188 7.046875 -31.390625 C 9.015625 -33.035156 10.960938 -33.859375 12.890625 -33.859375 C 15.546875 -33.859375 16.929688 -32.851562 17.046875 -30.84375 C 17.171875 -28.832031 16.304688 -26.664062 14.453125 -24.34375 C 13.492188 -23.300781 12.050781 -22.09375 10.125 -20.71875 C 8.195312 -19.351562 6.304688 -18.59375 4.453125 -18.4375 C 4.453125 -17.15625 4.492188 -16.007812 4.578125 -15 C 4.660156 -14 5.222656 -12.972656 6.265625 -11.921875 C 7.304688 -10.878906 8.632812 -10.359375 10.25 -10.359375 C 12.332031 -10.359375 14.5 -11.019531 16.75 -12.34375 C 19 -13.675781 20.726562 -14.785156 21.9375 -15.671875 C 22.414062 -16.066406 22.796875 -16.382812 23.078125 -16.625 C 23.359375 -16.863281 23.695312 -17.144531 24.09375 -17.46875 C 25.78125 -18.757812 26.84375 -19.703125 27.28125 -20.296875 C 27.726562 -20.898438 28.113281 -21.300781 28.4375 -21.5 C 28.757812 -21.707031 29.523438 -21.8125 30.734375 -21.8125 C 30.890625 -20.925781 30.945312 -20.320312 30.90625 -20 C 30.863281 -19.675781 30.5625 -19.195312 30 -18.5625 C 28.550781 -17.113281 26.722656 -15.460938 24.515625 -13.609375 C 22.304688 -11.765625 19.9375 -10.160156 17.40625 -8.796875 C 14.875 -7.429688 12.363281 -6.75 9.875 -6.75 C 8.59375 -6.75 7.367188 -6.96875 6.203125 -7.40625 C 5.035156 -7.851562 3.929688 -8.597656 2.890625 -9.640625 C 1.441406 -11.085938 0.617188 -12.570312 0.421875 -14.09375 C 0.222656 -15.625 0.125 -17.234375 0.125 -18.921875 Z M 0.125 -18.921875 "/></g></g></g><g fill="#ebb230" fill-opacity="1"><g transform="translate(425.667608, 448.104225)"><g><path d="M 0.234375 -9.28125 C 0.234375 -13.289062 0.472656 -17.625 0.953125 -22.28125 C 1.441406 -26.945312 2.085938 -31.566406 2.890625 -36.140625 C 3.691406 -40.722656 4.578125 -44.863281 5.546875 -48.5625 C 5.941406 -49.769531 6.335938 -51.113281 6.734375 -52.59375 C 7.140625 -54.082031 7.664062 -55.367188 8.3125 -56.453125 C 8.957031 -57.535156 9.800781 -58.078125 10.84375 -58.078125 C 11.8125 -58.078125 12.414062 -57.710938 12.65625 -56.984375 C 12.894531 -56.265625 12.910156 -55.40625 12.703125 -54.40625 C 12.503906 -53.40625 12.242188 -52.484375 11.921875 -51.640625 C 11.609375 -50.796875 11.410156 -50.210938 11.328125 -49.890625 C 10.679688 -47.472656 9.9375 -44.195312 9.09375 -40.0625 C 8.25 -35.925781 7.445312 -31.40625 6.6875 -26.5 C 5.925781 -21.601562 5.34375 -16.742188 4.9375 -11.921875 C 4.539062 -7.109375 4.460938 -2.753906 4.703125 1.140625 C 4.941406 5.035156 5.582031 8.03125 6.625 10.125 C 7.988281 9.394531 9.113281 8.304688 10 6.859375 C 10.882812 5.421875 11.648438 4.019531 12.296875 2.65625 C 14.140625 -0.882812 15.941406 -4.617188 17.703125 -8.546875 C 19.472656 -12.484375 21.320312 -16.179688 23.25 -19.640625 C 23.894531 -20.921875 24.582031 -21.5625 25.3125 -21.5625 C 25.625 -21.5625 25.878906 -21.421875 26.078125 -21.140625 C 26.285156 -20.859375 26.390625 -20.5625 26.390625 -20.25 C 26.390625 -20 26.066406 -19.234375 25.421875 -17.953125 C 24.785156 -16.671875 24.125 -15.34375 23.4375 -13.96875 C 22.75 -12.601562 22.285156 -11.722656 22.046875 -11.328125 C 21.242188 -9.640625 20.335938 -7.671875 19.328125 -5.421875 C 18.328125 -3.171875 17.34375 -0.960938 16.375 1.203125 C 15.414062 3.367188 14.492188 5.21875 13.609375 6.75 C 13.210938 7.394531 12.671875 8.257812 11.984375 9.34375 C 11.304688 10.425781 10.566406 11.367188 9.765625 12.171875 C 8.960938 12.972656 8.035156 13.375 6.984375 13.375 C 5.378906 13.375 4.113281 12.570312 3.1875 10.96875 C 2.269531 9.363281 1.609375 7.351562 1.203125 4.9375 C 0.804688 2.53125 0.546875 0.0390625 0.421875 -2.53125 C 0.296875 -5.101562 0.234375 -7.351562 0.234375 -9.28125 Z M 0.234375 -9.28125 "/></g></g></g><g fill="#ebb230" fill-opacity="1"><g transform="translate(446.87423, 448.104225)"><g><path d="M 0 -12.171875 C 0 -13.859375 0.398438 -15.945312 1.203125 -18.4375 C 2.003906 -20.925781 3.128906 -23.394531 4.578125 -25.84375 C 6.023438 -28.289062 7.691406 -30.316406 9.578125 -31.921875 C 11.460938 -33.535156 13.453125 -34.34375 15.546875 -34.34375 C 17.472656 -34.34375 19.035156 -33.78125 20.234375 -32.65625 C 21.441406 -31.53125 22.164062 -30.382812 22.40625 -29.21875 C 22.65625 -28.050781 22.253906 -27.46875 21.203125 -27.46875 C 20.398438 -27.46875 19.578125 -27.929688 18.734375 -28.859375 C 17.890625 -29.785156 16.90625 -30.25 15.78125 -30.25 C 14.894531 -30.25 13.828125 -29.722656 12.578125 -28.671875 C 11.335938 -27.628906 9.835938 -25.582031 8.078125 -22.53125 C 7.273438 -21.25 6.53125 -19.582031 5.84375 -17.53125 C 5.15625 -15.476562 4.8125 -13.453125 4.8125 -11.453125 C 4.976562 -11.609375 5.039062 -11.664062 5 -11.625 C 4.957031 -11.582031 5.097656 -11.722656 5.421875 -12.046875 L 6.390625 -13.5 C 7.023438 -14.457031 7.765625 -15.695312 8.609375 -17.21875 C 9.453125 -18.75 10.316406 -20.296875 11.203125 -21.859375 C 12.085938 -23.429688 12.890625 -24.757812 13.609375 -25.84375 C 14.335938 -26.925781 14.898438 -27.46875 15.296875 -27.46875 C 16.742188 -27.46875 17.585938 -26.945312 17.828125 -25.90625 C 18.078125 -24.863281 18.179688 -23.578125 18.140625 -22.046875 C 18.097656 -20.523438 18.238281 -19 18.5625 -17.46875 C 19.039062 -15.300781 19.78125 -13.710938 20.78125 -12.703125 C 21.789062 -11.703125 22.9375 -11.203125 24.21875 -11.203125 C 26.46875 -11.203125 28.957031 -12.566406 31.6875 -15.296875 C 32.8125 -16.347656 33.613281 -17.210938 34.09375 -17.890625 C 34.582031 -18.578125 35.226562 -19.363281 36.03125 -20.25 C 36.59375 -21.050781 37.316406 -21.453125 38.203125 -21.453125 C 39.085938 -21.453125 39.46875 -20.707031 39.34375 -19.21875 C 39.21875 -17.726562 37.628906 -15.5 34.578125 -12.53125 L 30.96875 -9.640625 C 28.632812 -8.035156 26.382812 -7.234375 24.21875 -7.234375 C 22.207031 -7.234375 20.457031 -7.832031 18.96875 -9.03125 C 17.488281 -10.238281 16.347656 -11.722656 15.546875 -13.484375 C 14.742188 -15.253906 14.34375 -16.984375 14.34375 -18.671875 C 13.78125 -18.273438 13.132812 -17.394531 12.40625 -16.03125 C 11.6875 -14.664062 10.90625 -13.195312 10.0625 -11.625 C 9.21875 -10.0625 8.351562 -8.695312 7.46875 -7.53125 C 6.582031 -6.363281 5.695312 -5.78125 4.8125 -5.78125 C 2.570312 -5.78125 1.207031 -6.300781 0.71875 -7.34375 C 0.238281 -8.394531 0 -10.003906 0 -12.171875 Z M 0 -12.171875 "/></g></g></g><g fill="#ebb230" fill-opacity="1"><g transform="translate(481.816954, 448.104225)"><g><path d="M 6.390625 -9.765625 C 4.703125 -9.765625 3.515625 -10.609375 2.828125 -12.296875 C 2.148438 -13.984375 1.847656 -16.070312 1.921875 -18.5625 C 2.003906 -21.050781 2.328125 -23.539062 2.890625 -26.03125 C 3.453125 -28.519531 4.15625 -30.609375 5 -32.296875 C 5.84375 -33.984375 6.707031 -34.828125 7.59375 -34.828125 C 9.113281 -34.828125 10.015625 -34.484375 10.296875 -33.796875 C 10.578125 -33.117188 10.515625 -32.054688 10.109375 -30.609375 C 9.710938 -29.160156 9.253906 -27.332031 8.734375 -25.125 C 8.210938 -22.914062 7.953125 -20.285156 7.953125 -17.234375 C 8.109375 -17.390625 8.226562 -17.507812 8.3125 -17.59375 C 8.394531 -17.675781 8.476562 -17.753906 8.5625 -17.828125 L 14.21875 -27.359375 C 14.695312 -28.160156 15.359375 -29.222656 16.203125 -30.546875 C 17.046875 -31.867188 17.96875 -33.070312 18.96875 -34.15625 C 19.976562 -35.238281 20.96875 -35.78125 21.9375 -35.78125 C 23.78125 -35.78125 24.984375 -34.835938 25.546875 -32.953125 C 26.109375 -31.066406 26.390625 -29.160156 26.390625 -27.234375 C 27.273438 -27.390625 28.359375 -28.128906 29.640625 -29.453125 C 30.929688 -30.785156 32.097656 -31.929688 33.140625 -32.890625 C 33.703125 -33.535156 34.203125 -34.097656 34.640625 -34.578125 C 35.085938 -35.066406 35.628906 -35.46875 36.265625 -35.78125 C 37.066406 -36.1875 37.789062 -36.390625 38.4375 -36.390625 C 39.238281 -36.390625 39.921875 -36.066406 40.484375 -35.421875 C 41.046875 -34.785156 41.367188 -33.601562 41.453125 -31.875 C 41.535156 -30.144531 41.492188 -28.15625 41.328125 -25.90625 C 41.171875 -23.65625 40.988281 -21.40625 40.78125 -19.15625 C 40.582031 -16.90625 40.484375 -14.9375 40.484375 -13.25 C 40.484375 -9.5625 40.785156 -6.972656 41.390625 -5.484375 C 41.992188 -3.992188 42.816406 -3.25 43.859375 -3.25 C 45.066406 -3.25 46.410156 -4.050781 47.890625 -5.65625 C 49.378906 -7.269531 50.867188 -9.160156 52.359375 -11.328125 C 53.847656 -13.492188 55.113281 -15.460938 56.15625 -17.234375 C 56.71875 -18.117188 57.257812 -19 57.78125 -19.875 C 58.300781 -20.757812 59.203125 -21.203125 60.484375 -21.203125 C 60.734375 -21.203125 61 -21.039062 61.28125 -20.71875 C 61.5625 -20.40625 61.703125 -20.046875 61.703125 -19.640625 C 61.703125 -19.160156 61.457031 -18.476562 60.96875 -17.59375 C 60.488281 -16.707031 59.988281 -15.84375 59.46875 -15 C 58.945312 -14.15625 58.523438 -13.492188 58.203125 -13.015625 C 57.878906 -12.453125 57.597656 -11.96875 57.359375 -11.5625 C 57.117188 -11.164062 56.796875 -10.644531 56.390625 -10 C 56.066406 -9.519531 55.742188 -9.097656 55.421875 -8.734375 C 55.109375 -8.367188 54.75 -7.867188 54.34375 -7.234375 C 52.820312 -4.984375 50.992188 -3.015625 48.859375 -1.328125 C 46.734375 0.359375 44.664062 1.203125 42.65625 1.203125 C 41.53125 1.203125 40.445312 0.835938 39.40625 0.109375 C 38.363281 -0.609375 37.519531 -1.847656 36.875 -3.609375 C 35.75 -6.585938 35.207031 -9.722656 35.25 -13.015625 C 35.289062 -16.304688 35.550781 -19.519531 36.03125 -22.65625 C 36.507812 -25.789062 36.75 -28.519531 36.75 -30.84375 C 35.945312 -30.28125 34.960938 -29.359375 33.796875 -28.078125 C 32.628906 -26.796875 31.441406 -25.609375 30.234375 -24.515625 C 29.035156 -23.429688 27.875 -22.890625 26.75 -22.890625 C 24.90625 -22.890625 23.640625 -23.773438 22.953125 -25.546875 C 22.273438 -27.316406 21.9375 -29.082031 21.9375 -30.84375 C 20.5625 -29.957031 19.25 -28.390625 18 -26.140625 C 16.757812 -23.898438 15.515625 -21.53125 14.265625 -19.03125 C 13.023438 -16.539062 11.78125 -14.390625 10.53125 -12.578125 C 9.289062 -10.773438 7.988281 -9.835938 6.625 -9.765625 Z M 6.390625 -9.765625 "/></g></g></g><g fill="#ebb230" fill-opacity="1"><g transform="translate(538.086796, 448.104225)"><g><path d="M 16.390625 -55.1875 C 15.503906 -55.425781 15.0625 -55.867188 15.0625 -56.515625 C 15.0625 -57.160156 15.363281 -57.78125 15.96875 -58.375 C 16.570312 -58.976562 17.191406 -59.28125 17.828125 -59.28125 C 18.710938 -59.28125 19.375 -58.976562 19.8125 -58.375 C 20.257812 -57.78125 20.484375 -57.238281 20.484375 -56.75 C 20.484375 -55.945312 20.140625 -54.476562 19.453125 -52.34375 C 18.773438 -50.21875 17.929688 -47.953125 16.921875 -45.546875 C 15.921875 -43.140625 14.898438 -41.070312 13.859375 -39.34375 C 12.816406 -37.613281 11.929688 -36.75 11.203125 -36.75 C 10.003906 -36.75 9.703125 -37.269531 10.296875 -38.3125 C 10.898438 -39.363281 11.484375 -40.488281 12.046875 -41.6875 C 12.523438 -42.65625 13.109375 -44.019531 13.796875 -45.78125 C 14.484375 -47.550781 15.085938 -49.320312 15.609375 -51.09375 C 16.128906 -52.863281 16.390625 -54.226562 16.390625 -55.1875 Z M 16.390625 -55.1875 "/></g></g></g><g fill="#ebb230" fill-opacity="1"><g transform="translate(563.269655, 448.104225)"><g><path d="M 1.453125 19.875 C 1.453125 21.5625 1.972656 22.40625 3.015625 22.40625 C 3.578125 22.40625 4.175781 22.203125 4.8125 21.796875 C 5.457031 21.398438 5.984375 21.039062 6.390625 20.71875 C 7.992188 19.519531 9.414062 17.691406 10.65625 15.234375 C 11.90625 12.785156 12.8125 10.5625 13.375 8.5625 C 13.78125 7.1875 14 5.796875 14.03125 4.390625 C 14.070312 2.992188 14.09375 1.453125 14.09375 -0.234375 C 13.132812 0.328125 12.03125 1.304688 10.78125 2.703125 C 9.539062 4.109375 8.554688 5.253906 7.828125 6.140625 C 6.378906 7.910156 4.953125 10.039062 3.546875 12.53125 C 2.148438 15.019531 1.453125 17.46875 1.453125 19.875 Z M 0.359375 -19.515625 C 0.359375 -21.609375 0.921875 -23.476562 2.046875 -25.125 C 3.171875 -26.769531 4.515625 -28.09375 6.078125 -29.09375 C 7.648438 -30.101562 9 -30.609375 10.125 -30.609375 C 11.007812 -30.609375 11.671875 -30.285156 12.109375 -29.640625 C 12.546875 -28.992188 12.566406 -27.910156 12.171875 -26.390625 C 11.203125 -26.148438 10.515625 -26.007812 10.109375 -25.96875 C 9.710938 -25.925781 9.394531 -25.804688 9.15625 -25.609375 C 8.914062 -25.410156 8.472656 -24.945312 7.828125 -24.21875 C 6.222656 -22.445312 5.476562 -21.019531 5.59375 -19.9375 C 5.71875 -18.851562 6.363281 -17.847656 7.53125 -16.921875 C 8.695312 -16.003906 10.140625 -14.863281 11.859375 -13.5 C 13.585938 -12.132812 15.21875 -10.285156 16.75 -7.953125 C 18.519531 -9.160156 20.328125 -10.566406 22.171875 -12.171875 L 33.375 -20 C 34.414062 -20.726562 35.316406 -21.234375 36.078125 -21.515625 C 36.847656 -21.796875 37.515625 -21.9375 38.078125 -21.9375 C 39.046875 -21.9375 39.445312 -21.53125 39.28125 -20.71875 C 39.125 -19.914062 38.363281 -19.113281 37 -18.3125 L 28.796875 -12.65625 C 28.472656 -12.488281 27.789062 -12.023438 26.75 -11.265625 C 25.707031 -10.503906 24.5625 -9.660156 23.3125 -8.734375 C 22.070312 -7.804688 21.007812 -6.941406 20.125 -6.140625 C 19.238281 -5.335938 18.753906 -4.816406 18.671875 -4.578125 C 18.597656 -4.171875 18.71875 -3.40625 19.03125 -2.28125 C 19.351562 -1.164062 19.570312 0.289062 19.6875 2.09375 C 19.8125 3.90625 19.570312 6.117188 18.96875 8.734375 C 18.375 11.347656 17.070312 14.378906 15.0625 17.828125 C 13.289062 20.804688 11.359375 23 9.265625 24.40625 C 7.179688 25.8125 5.21875 26.515625 3.375 26.515625 C 1.6875 26.515625 0.300781 25.953125 -0.78125 24.828125 C -1.863281 23.703125 -2.40625 22.050781 -2.40625 19.875 C -2.40625 17.144531 -1.742188 14.492188 -0.421875 11.921875 C 0.898438 9.359375 2.484375 6.988281 4.328125 4.8125 C 6.179688 2.644531 7.890625 0.78125 9.453125 -0.78125 C 11.023438 -2.351562 12.050781 -3.5 12.53125 -4.21875 C 11.570312 -5.90625 10.40625 -7.367188 9.03125 -8.609375 C 7.664062 -9.859375 6.320312 -11.003906 5 -12.046875 C 3.675781 -13.085938 2.570312 -14.191406 1.6875 -15.359375 C 0.800781 -16.523438 0.359375 -17.910156 0.359375 -19.515625 Z M 0.359375 -19.515625 "/></g></g></g><g fill="#ebb230" fill-opacity="1"><g transform="translate(371.253031, 519.558882)"><g><path d="M 13.34375 -16.0625 L 28.421875 -1.984375 C 28.765625 -1.679688 28.9375 -1.335938 28.9375 -0.953125 C 28.9375 -0.691406 28.847656 -0.46875 28.671875 -0.28125 C 28.503906 -0.09375 28.289062 0 28.03125 0 C 27.738281 0 27.457031 -0.128906 27.1875 -0.390625 L 11.71875 -15 L 6.359375 -11.484375 L 6.359375 -1.8125 C 6.359375 -1.3125 6.28125 -0.882812 6.125 -0.53125 C 5.96875 -0.175781 5.6875 0 5.28125 0 C 4.78125 0 4.460938 -0.175781 4.328125 -0.53125 C 4.203125 -0.882812 4.140625 -1.296875 4.140625 -1.765625 L 4.140625 -27.109375 C 4.140625 -27.609375 4.210938 -28.015625 4.359375 -28.328125 C 4.503906 -28.648438 4.828125 -28.8125 5.328125 -28.8125 C 5.742188 -28.8125 6.019531 -28.644531 6.15625 -28.3125 C 6.289062 -27.988281 6.359375 -27.601562 6.359375 -27.15625 L 6.359375 -13.546875 L 27.078125 -28.421875 C 27.265625 -28.554688 27.445312 -28.65625 27.625 -28.71875 C 27.8125 -28.78125 27.972656 -28.8125 28.109375 -28.8125 C 28.390625 -28.8125 28.601562 -28.734375 28.75 -28.578125 C 28.894531 -28.421875 28.96875 -28.222656 28.96875 -27.984375 C 28.96875 -27.609375 28.773438 -27.28125 28.390625 -27 Z M 13.34375 -16.0625 "/></g></g></g><g fill="#ebb230" fill-opacity="1"><g transform="translate(406.959611, 519.558882)"><g><path d="M 6.515625 -1.625 C 6.515625 -1.40625 6.503906 -1.195312 6.484375 -1 C 6.472656 -0.800781 6.4375 -0.628906 6.375 -0.484375 C 6.3125 -0.335938 6.210938 -0.21875 6.078125 -0.125 C 5.941406 -0.0390625 5.742188 0 5.484375 0 C 5.003906 0 4.710938 -0.144531 4.609375 -0.4375 C 4.503906 -0.726562 4.453125 -1.125 4.453125 -1.625 L 4.453125 -18.234375 C 4.453125 -18.660156 4.507812 -19.03125 4.625 -19.34375 C 4.75 -19.65625 5.050781 -19.8125 5.53125 -19.8125 C 5.96875 -19.8125 6.238281 -19.65625 6.34375 -19.34375 C 6.457031 -19.03125 6.515625 -18.675781 6.515625 -18.28125 Z M 4.109375 -25.65625 C 4.109375 -26.050781 4.238281 -26.378906 4.5 -26.640625 C 4.757812 -26.910156 5.085938 -27.046875 5.484375 -27.046875 C 5.878906 -27.046875 6.210938 -26.910156 6.484375 -26.640625 C 6.765625 -26.378906 6.90625 -26.050781 6.90625 -25.65625 C 6.90625 -25.257812 6.765625 -24.941406 6.484375 -24.703125 C 6.210938 -24.460938 5.878906 -24.34375 5.484375 -24.34375 C 5.085938 -24.34375 4.757812 -24.460938 4.5 -24.703125 C 4.238281 -24.941406 4.109375 -25.257812 4.109375 -25.65625 Z M 4.109375 -25.65625 "/></g></g></g><g fill="#ebb230" fill-opacity="1"><g transform="translate(421.897684, 519.558882)"><g><path d="M 15.4375 -19.421875 C 15.695312 -19.421875 15.890625 -19.351562 16.015625 -19.21875 C 16.148438 -19.09375 16.21875 -18.953125 16.21875 -18.796875 C 16.21875 -18.640625 16.148438 -18.5 16.015625 -18.375 C 15.890625 -18.25 15.695312 -18.1875 15.4375 -18.1875 L 6.859375 -18.1875 L 6.859375 -7.21875 C 6.859375 -5.957031 6.984375 -4.9375 7.234375 -4.15625 C 7.492188 -3.382812 7.84375 -2.78125 8.28125 -2.34375 C 8.726562 -1.914062 9.25 -1.628906 9.84375 -1.484375 C 10.4375 -1.335938 11.066406 -1.265625 11.734375 -1.265625 C 12.566406 -1.265625 13.378906 -1.410156 14.171875 -1.703125 C 14.960938 -1.992188 15.878906 -2.414062 16.921875 -2.96875 C 17.117188 -3.070312 17.316406 -3.125 17.515625 -3.125 C 17.734375 -3.125 17.90625 -3.054688 18.03125 -2.921875 C 18.164062 -2.796875 18.234375 -2.640625 18.234375 -2.453125 C 18.234375 -2.109375 18.046875 -1.832031 17.671875 -1.625 C 16.941406 -1.226562 16.296875 -0.910156 15.734375 -0.671875 C 15.171875 -0.429688 14.648438 -0.238281 14.171875 -0.09375 C 13.703125 0.0390625 13.242188 0.132812 12.796875 0.1875 C 12.347656 0.238281 11.875 0.265625 11.375 0.265625 C 10.445312 0.265625 9.582031 0.132812 8.78125 -0.125 C 7.976562 -0.382812 7.28125 -0.800781 6.6875 -1.375 C 6.09375 -1.957031 5.625 -2.726562 5.28125 -3.6875 C 4.945312 -4.644531 4.78125 -5.820312 4.78125 -7.21875 L 4.78125 -18.1875 L 2.515625 -18.1875 C 2.265625 -18.1875 2.078125 -18.25 1.953125 -18.375 C 1.835938 -18.5 1.78125 -18.640625 1.78125 -18.796875 C 1.78125 -18.953125 1.835938 -19.09375 1.953125 -19.21875 C 2.078125 -19.351562 2.265625 -19.421875 2.515625 -19.421875 L 4.78125 -19.421875 L 4.78125 -25.859375 C 4.78125 -26.410156 4.890625 -26.757812 5.109375 -26.90625 C 5.335938 -27.050781 5.570312 -27.125 5.8125 -27.125 C 6.113281 -27.125 6.363281 -27.050781 6.5625 -26.90625 C 6.757812 -26.757812 6.859375 -26.410156 6.859375 -25.859375 L 6.859375 -19.421875 Z M 15.4375 -19.421875 "/></g></g></g><g fill="#ebb230" fill-opacity="1"><g transform="translate(444.284484, 519.558882)"><g><path d="M 16.25 -18.796875 C 14.257812 -18.796875 12.566406 -18.628906 11.171875 -18.296875 C 9.773438 -17.972656 8.632812 -17.453125 7.75 -16.734375 C 6.863281 -16.023438 6.210938 -15.109375 5.796875 -13.984375 C 5.378906 -12.867188 5.171875 -11.523438 5.171875 -9.953125 C 5.171875 -8.367188 5.398438 -7.023438 5.859375 -5.921875 C 6.316406 -4.816406 7.003906 -3.921875 7.921875 -3.234375 C 8.847656 -2.546875 10 -2.046875 11.375 -1.734375 C 12.757812 -1.421875 14.375 -1.265625 16.21875 -1.265625 C 17.039062 -1.265625 17.878906 -1.320312 18.734375 -1.4375 C 19.585938 -1.5625 20.398438 -1.710938 21.171875 -1.890625 C 21.953125 -2.078125 22.671875 -2.28125 23.328125 -2.5 C 23.984375 -2.726562 24.519531 -2.945312 24.9375 -3.15625 C 25.195312 -3.238281 25.375 -3.28125 25.46875 -3.28125 C 25.695312 -3.28125 25.875 -3.210938 26 -3.078125 C 26.132812 -2.953125 26.203125 -2.796875 26.203125 -2.609375 C 26.203125 -2.472656 26.15625 -2.332031 26.0625 -2.1875 C 25.976562 -2.039062 25.84375 -1.914062 25.65625 -1.8125 C 24.132812 -1.03125 22.5625 -0.488281 20.9375 -0.1875 C 19.320312 0.113281 17.757812 0.265625 16.25 0.265625 C 14.28125 0.265625 12.488281 0.109375 10.875 -0.203125 C 9.257812 -0.515625 7.878906 -1.054688 6.734375 -1.828125 C 5.585938 -2.609375 4.695312 -3.65625 4.0625 -4.96875 C 3.425781 -6.28125 3.109375 -7.941406 3.109375 -9.953125 C 3.109375 -11.953125 3.398438 -13.613281 3.984375 -14.9375 C 4.566406 -16.269531 5.414062 -17.335938 6.53125 -18.140625 C 7.65625 -18.941406 9.03125 -19.503906 10.65625 -19.828125 C 12.289062 -20.160156 14.15625 -20.328125 16.25 -20.328125 C 17.757812 -20.328125 19.320312 -20.175781 20.9375 -19.875 C 22.5625 -19.570312 24.132812 -19.035156 25.65625 -18.265625 C 25.84375 -18.160156 25.976562 -18.035156 26.0625 -17.890625 C 26.15625 -17.742188 26.203125 -17.597656 26.203125 -17.453125 C 26.203125 -17.265625 26.132812 -17.101562 26 -16.96875 C 25.875 -16.84375 25.695312 -16.78125 25.46875 -16.78125 C 25.375 -16.78125 25.195312 -16.828125 24.9375 -16.921875 C 24.519531 -17.117188 23.984375 -17.328125 23.328125 -17.546875 C 22.671875 -17.773438 21.953125 -17.976562 21.171875 -18.15625 C 20.398438 -18.34375 19.585938 -18.492188 18.734375 -18.609375 C 17.878906 -18.734375 17.050781 -18.796875 16.25 -18.796875 Z M 16.25 -18.796875 "/></g></g></g><g fill="#ebb230" fill-opacity="1"><g transform="translate(477.482293, 519.558882)"><g><path d="M 27.1875 -1.859375 C 27.1875 -1.640625 27.171875 -1.414062 27.140625 -1.1875 C 27.117188 -0.96875 27.070312 -0.769531 27 -0.59375 C 26.925781 -0.425781 26.828125 -0.285156 26.703125 -0.171875 C 26.578125 -0.0546875 26.410156 0 26.203125 0 C 25.941406 0 25.738281 -0.0546875 25.59375 -0.171875 C 25.457031 -0.285156 25.351562 -0.425781 25.28125 -0.59375 C 25.207031 -0.769531 25.160156 -0.96875 25.140625 -1.1875 C 25.117188 -1.414062 25.109375 -1.640625 25.109375 -1.859375 L 25.109375 -10.8125 C 25.109375 -12.15625 25.003906 -13.328125 24.796875 -14.328125 C 24.597656 -15.328125 24.207031 -16.15625 23.625 -16.8125 C 23.050781 -17.476562 22.242188 -17.972656 21.203125 -18.296875 C 20.171875 -18.628906 18.828125 -18.796875 17.171875 -18.796875 C 16.171875 -18.796875 15.09375 -18.710938 13.9375 -18.546875 C 12.78125 -18.390625 11.679688 -18.109375 10.640625 -17.703125 C 9.597656 -17.296875 8.671875 -16.753906 7.859375 -16.078125 C 7.046875 -15.410156 6.488281 -14.566406 6.1875 -13.546875 L 6.1875 -1.859375 C 6.1875 -1.640625 6.171875 -1.414062 6.140625 -1.1875 C 6.117188 -0.96875 6.070312 -0.769531 6 -0.59375 C 5.925781 -0.425781 5.828125 -0.285156 5.703125 -0.171875 C 5.578125 -0.0546875 5.410156 0 5.203125 0 C 4.960938 0 4.765625 -0.0546875 4.609375 -0.171875 C 4.460938 -0.285156 4.347656 -0.425781 4.265625 -0.59375 C 4.191406 -0.769531 4.144531 -0.96875 4.125 -1.1875 C 4.113281 -1.414062 4.109375 -1.640625 4.109375 -1.859375 L 4.109375 -27 C 4.109375 -27.207031 4.113281 -27.414062 4.125 -27.625 C 4.144531 -27.84375 4.191406 -28.035156 4.265625 -28.203125 C 4.347656 -28.378906 4.460938 -28.523438 4.609375 -28.640625 C 4.765625 -28.753906 4.960938 -28.8125 5.203125 -28.8125 C 5.410156 -28.8125 5.578125 -28.757812 5.703125 -28.65625 C 5.828125 -28.550781 5.925781 -28.410156 6 -28.234375 C 6.070312 -28.066406 6.117188 -27.875 6.140625 -27.65625 C 6.171875 -27.445312 6.1875 -27.226562 6.1875 -27 L 6.1875 -15.359375 C 6.375 -16.046875 6.695312 -16.648438 7.15625 -17.171875 C 7.613281 -17.691406 8.144531 -18.132812 8.75 -18.5 C 9.363281 -18.875 10.039062 -19.175781 10.78125 -19.40625 C 11.519531 -19.644531 12.265625 -19.832031 13.015625 -19.96875 C 13.765625 -20.101562 14.5 -20.195312 15.21875 -20.25 C 15.9375 -20.300781 16.585938 -20.328125 17.171875 -20.328125 C 19.035156 -20.328125 20.601562 -20.164062 21.875 -19.84375 C 23.15625 -19.53125 24.1875 -19 24.96875 -18.25 C 25.75 -17.507812 26.3125 -16.53125 26.65625 -15.3125 C 27.007812 -14.101562 27.1875 -12.601562 27.1875 -10.8125 Z M 27.1875 -1.859375 "/></g></g></g><g fill="#ebb230" fill-opacity="1"><g transform="translate(512.387103, 519.558882)"><g><path d="M 15.515625 -18.796875 C 13.910156 -18.796875 12.488281 -18.65625 11.25 -18.375 C 10.007812 -18.101562 8.953125 -17.660156 8.078125 -17.046875 C 7.210938 -16.441406 6.535156 -15.65625 6.046875 -14.6875 C 5.566406 -13.726562 5.289062 -12.546875 5.21875 -11.140625 L 24.71875 -11.140625 L 24.71875 -12.546875 C 24.71875 -13.410156 24.554688 -14.21875 24.234375 -14.96875 C 23.921875 -15.726562 23.398438 -16.390625 22.671875 -16.953125 C 21.953125 -17.523438 21.003906 -17.972656 19.828125 -18.296875 C 18.660156 -18.628906 17.222656 -18.796875 15.515625 -18.796875 Z M 14.171875 -1.265625 C 15.804688 -1.265625 17.234375 -1.367188 18.453125 -1.578125 C 19.679688 -1.785156 20.734375 -2.035156 21.609375 -2.328125 C 22.492188 -2.617188 23.21875 -2.921875 23.78125 -3.234375 C 24.34375 -3.546875 24.78125 -3.804688 25.09375 -4.015625 C 25.195312 -4.046875 25.265625 -4.0625 25.296875 -4.0625 C 25.484375 -4.0625 25.660156 -3.96875 25.828125 -3.78125 C 25.992188 -3.601562 26.078125 -3.410156 26.078125 -3.203125 C 26.078125 -3.015625 25.988281 -2.859375 25.8125 -2.734375 C 25.65625 -2.585938 25.320312 -2.347656 24.8125 -2.015625 C 24.300781 -1.691406 23.570312 -1.359375 22.625 -1.015625 C 21.675781 -0.679688 20.503906 -0.382812 19.109375 -0.125 C 17.710938 0.132812 16.054688 0.265625 14.140625 0.265625 C 12.140625 0.265625 10.441406 0.015625 9.046875 -0.484375 C 7.648438 -0.984375 6.507812 -1.679688 5.625 -2.578125 C 4.75 -3.484375 4.113281 -4.5625 3.71875 -5.8125 C 3.320312 -7.070312 3.125 -8.453125 3.125 -9.953125 C 3.125 -11.953125 3.441406 -13.613281 4.078125 -14.9375 C 4.722656 -16.269531 5.597656 -17.335938 6.703125 -18.140625 C 7.816406 -18.941406 9.128906 -19.503906 10.640625 -19.828125 C 12.148438 -20.160156 13.773438 -20.328125 15.515625 -20.328125 C 19.097656 -20.328125 21.78125 -19.640625 23.5625 -18.265625 C 25.351562 -16.898438 26.25 -14.941406 26.25 -12.390625 C 26.25 -12.148438 26.226562 -11.878906 26.1875 -11.578125 C 26.15625 -11.285156 26.109375 -11.003906 26.046875 -10.734375 C 25.992188 -10.472656 25.925781 -10.25 25.84375 -10.0625 C 25.769531 -9.882812 25.695312 -9.796875 25.625 -9.796875 L 18.03125 -9.796875 L 5.203125 -10.0625 C 5.234375 -8.457031 5.441406 -7.097656 5.828125 -5.984375 C 6.222656 -4.867188 6.796875 -3.960938 7.546875 -3.265625 C 8.296875 -2.566406 9.21875 -2.054688 10.3125 -1.734375 C 11.414062 -1.421875 12.703125 -1.265625 14.171875 -1.265625 Z M 14.171875 -1.265625 "/></g></g></g><g fill="#ebb230" fill-opacity="1"><g transform="translate(545.533185, 519.558882)"><g><path d="M 27.03125 -1.859375 C 27.03125 -1.640625 27.007812 -1.414062 26.96875 -1.1875 C 26.9375 -0.96875 26.878906 -0.769531 26.796875 -0.59375 C 26.722656 -0.425781 26.617188 -0.285156 26.484375 -0.171875 C 26.347656 -0.0546875 26.175781 0 25.96875 0 C 25.707031 0 25.507812 -0.0546875 25.375 -0.171875 C 25.25 -0.285156 25.148438 -0.425781 25.078125 -0.59375 C 25.015625 -0.769531 24.976562 -0.96875 24.96875 -1.1875 C 24.957031 -1.414062 24.953125 -1.640625 24.953125 -1.859375 L 24.953125 -10.8125 C 24.953125 -12.15625 24.851562 -13.328125 24.65625 -14.328125 C 24.457031 -15.328125 24.066406 -16.15625 23.484375 -16.8125 C 22.910156 -17.476562 22.109375 -17.972656 21.078125 -18.296875 C 20.054688 -18.628906 18.71875 -18.796875 17.0625 -18.796875 C 16.050781 -18.796875 14.972656 -18.710938 13.828125 -18.546875 C 12.691406 -18.390625 11.609375 -18.109375 10.578125 -17.703125 C 9.546875 -17.296875 8.628906 -16.753906 7.828125 -16.078125 C 7.035156 -15.410156 6.488281 -14.566406 6.1875 -13.546875 L 6.1875 -1.859375 C 6.1875 -1.640625 6.175781 -1.414062 6.15625 -1.1875 C 6.132812 -0.96875 6.085938 -0.769531 6.015625 -0.59375 C 5.953125 -0.425781 5.851562 -0.285156 5.71875 -0.171875 C 5.59375 -0.0546875 5.425781 0 5.21875 0 C 4.976562 0 4.785156 -0.0546875 4.640625 -0.171875 C 4.492188 -0.285156 4.378906 -0.425781 4.296875 -0.59375 C 4.222656 -0.769531 4.171875 -0.96875 4.140625 -1.1875 C 4.117188 -1.414062 4.109375 -1.640625 4.109375 -1.859375 L 4.109375 -18.625 C 4.109375 -18.914062 4.164062 -19.1875 4.28125 -19.4375 C 4.40625 -19.6875 4.710938 -19.8125 5.203125 -19.8125 C 5.628906 -19.8125 5.898438 -19.691406 6.015625 -19.453125 C 6.128906 -19.222656 6.1875 -18.945312 6.1875 -18.625 L 6.1875 -15.359375 C 6.664062 -16.460938 7.332031 -17.347656 8.1875 -18.015625 C 9.050781 -18.679688 9.992188 -19.179688 11.015625 -19.515625 C 12.046875 -19.847656 13.09375 -20.066406 14.15625 -20.171875 C 15.21875 -20.273438 16.1875 -20.328125 17.0625 -20.328125 C 18.925781 -20.328125 20.492188 -20.164062 21.765625 -19.84375 C 23.035156 -19.53125 24.0625 -19 24.84375 -18.25 C 25.625 -17.507812 26.179688 -16.53125 26.515625 -15.3125 C 26.859375 -14.101562 27.03125 -12.601562 27.03125 -10.8125 Z M 27.03125 -1.859375 "/></g></g></g></svg>